<?xml version="1.0" standalone="no"?>
<!DOCTYPE svg PUBLIC "-//W3C//DTD SVG 20010904//EN"
 "http://www.w3.org/TR/2001/REC-SVG-20010904/DTD/svg10.dtd">
<svg version="1.0" xmlns="http://www.w3.org/2000/svg"
 width="471.000000pt" height="471.000000pt" viewBox="0 0 471.000000 471.000000"
 preserveAspectRatio="xMidYMid meet">
<metadata>
Created by potrace 1.11, written by Peter Selinger 2001-2013
</metadata>
<g transform="translate(0.000000,471.000000) scale(0.100000,-0.100000)"
fill="#000000" stroke="none">
<path d="M2336 3618 c-9 -17 -13 -34 -10 -39 3 -5 -1 -6 -9 -3 -8 3 -17 -2
-20 -10 -5 -12 1 -16 23 -16 29 0 30 -1 30 -50 0 -27 -4 -50 -9 -50 -16 0 -22
-33 -9 -47 11 -10 10 -59 -4 -270 -10 -142 -18 -289 -19 -328 0 -66 -3 -73
-39 -116 -38 -45 -39 -49 -42 -133 l-3 -86 -32 0 c-36 0 -44 -18 -18 -44 12
-12 15 -49 15 -205 0 -184 -1 -191 -20 -191 -18 0 -20 -7 -20 -65 l0 -65 -45
0 c-32 0 -45 -4 -45 -14 0 -8 6 -16 13 -18 9 -4 13 -69 15 -269 3 -260 3 -264
-19 -282 -19 -15 -53 -17 -376 -17 l-355 0 4 110 3 110 -75 0 -75 0 3 -110 4
-110 -26 0 -26 0 0 -90 0 -90 -237 0 -238 0 -100 65 -100 64 -36 -22 c-222
-135 -428 -275 -429 -289 0 -10 7 -18 15 -18 13 0 15 -56 15 -445 l0 -445
2315 0 2315 0 0 445 c0 389 2 445 15 445 60 0 -77 102 -414 307 l-36 22 -100
-64 -100 -65 -237 0 -238 0 0 90 0 90 -26 0 -26 0 4 110 3 110 -75 0 -75 0 3
-110 4 -110 -355 0 c-323 0 -357 2 -376 18 -22 17 -22 21 -19 281 2 200 6 265
16 269 6 2 12 10 12 18 0 10 -13 14 -45 14 l-45 0 0 65 c0 58 -2 65 -20 65
-19 0 -20 7 -20 191 0 156 3 193 15 205 26 26 18 44 -18 44 l-32 0 -3 86 c-3
84 -4 88 -42 133 -35 43 -38 51 -39 111 0 36 -9 183 -18 328 -15 216 -16 265
-5 275 13 14 7 47 -9 47 -5 0 -9 23 -9 50 0 48 1 50 29 50 25 0 28 3 24 24 -3
14 -18 36 -33 50 l-29 25 -15 -31z"/>
</g>
</svg>
